<svg xmlns="http://www.w3.org/2000/svg" version="1.1" xmlns:xlink="http://www.w3.org/1999/xlink" xmlns:svgjs="http://svgjs.dev/svgjs" width="1000" height="623" viewBox="0 0 1000 623"><g transform="matrix(1,0,0,1,-0.6056348047761162,0.2522267206477977)"><svg viewBox="0 0 396 247" data-background-color="#282634" preserveAspectRatio="xMidYMid meet" height="623" width="1000" xmlns="http://www.w3.org/2000/svg" xmlns:xlink="http://www.w3.org/1999/xlink"><g id="tight-bounds" transform="matrix(1,0,0,1,0.24008861730862918,-0.09999999999999432)"><svg viewBox="0 0 395.52 247.2" height="247.2" width="395.52"><g><svg></svg></g><g><svg viewBox="0 0 395.52 247.2" height="247.2" width="395.52"><g><g><path xmlns="http://www.w3.org/2000/svg" d="M237.522 51.783c0-5.137-1.582-9.863-4.747-14.179-3.206-4.315-8.61-6.473-16.213-6.473h-64.42l-0.045 29.627-36.634 0v-42.264c0-7.398 1.911-12.329 5.733-14.795 3.781-2.466 8.343-3.699 13.685-3.699h89.387c5.343 0 11.055 1.027 17.137 3.082 6.041 2.055 11.733 4.829 17.076 8.322h-0.308c5.343 3.904 9.309 9.041 11.898 15.412 2.548 6.37 3.822 13.768 3.822 22.192v11.75h-36.371zM151.834 234.563c0 4.11-1.911 7.233-5.733 9.37-3.781 2.178-7.932 3.267-12.453 3.267-12.124 0-18.186-4.932-18.185-14.795l0-45.963 36.444 0zM280.057 195.417c0 16.85-6.576 29.282-19.726 37.296-6.576 4.11-12.781 7.192-18.617 9.247-5.877 2.055-11.692 3.082-17.446 3.082h-45.618c-3.493 0-6.206-1.438-8.137-4.315-1.973-2.877-2.959-6.678-2.959-11.404 0-10.274 4.315-15.411 12.945-15.412h42.228c7.603 0 12.946-2.158 16.028-6.473 3.082-4.315 4.623-9.144 4.623-14.486l0-6.51h36.679z" fill="#ff4057" fill-rule="nonzero" stroke="none" stroke-width="1" stroke-linecap="butt" stroke-linejoin="miter" stroke-miterlimit="10" stroke-dasharray="" stroke-dashoffset="0" font-family="none" font-weight="none" font-size="none" text-anchor="none" style="mix-blend-mode: normal" data-fill-palette-color="tertiary"></path></g></g><g transform="matrix(1,0,0,1,0,70.31734385365333)"><svg viewBox="0 0 395.52 106.56531229269333" height="106.56531229269333" width="395.52"><g><svg viewBox="0 0 395.52 106.56531229269333" height="106.56531229269333" width="395.52"><g><svg viewBox="0 0 395.52 106.56531229269333" height="106.56531229269333" width="395.52"><g id="textblocktransform"><svg viewBox="0 0 395.52 106.56531229269333" height="106.56531229269333" width="395.52" id="textblock"><g><svg viewBox="0 0 395.52 76.98734560533333" height="76.98734560533333" width="395.52"><path d="M394.594 16.512C392.735 8.521 387.435 6.299 387.435 6.299 371.165-1.932 350.86-0.157 332.619 1.025 300.414 1.073 268.339 2.831 236.208 3.774 168.767 3.918 100.749 1.553 33.643 7.386 27.339 9.176-6.54 7.738 1.121 17.535 3.129 21.611 10.456 26.134 10.232 29.874 11.236 30.529 12.631 29.027 13.226 29.97 15.309 32.511 18.711 31.312 21.501 32.814 17.614 36.826 20.403 40.166 23.062 43.667 18.377 44.578 12.371 44.146 9.675 47.167 9.396 49.356 7.89 48.941 6.235 48.845 5.026 48.781 2.59 49.021 2.999 49.708 4.394 52.057-1.594 53.416 2.162 55.717-0.422 58.211 3.948 60.368 3.353 63.069 3.278 63.613 3.687 64.076 4.338 64.204 7.22 64.891 3.018 66.234 3.464 67.688 33.029 77.629 65.104 70.757 95.394 75.328 103.259 72.131 97.346 76.463 100.489 75.791 102.943 75.008 104.728 78.253 107.499 76.415 107.927 75.887 107.276 74.641 108.8 74.88 109.6 75.008 110.307 74.976 110.418 74.241 110.586 73.138 109.117 73.826 108.726 73.25 112.947 70.341 111.906 77.262 115.866 76.974 115.68 76.127 114.528 74.912 116.889 75.072 119.232 73.858 119.306 72.851 121.389 75.584 121.463 76.175 121.835 76.591 122.43 76.878 128.938 73.906 135.409 77.933 142.233 76.591 146.417 75.12 150.433 77.39 154.672 76.83 156.16 76.383 157.666 75.584 159.098 76.926 176.632 77.214 195.319 76.015 211.943 76.974 256.364 75.184 303.835 77.709 350.674 75.344 361.719 74.433 373.192 73.138 383.958 72.1 383.958 72.1 392.679 69.255 392.679 56.469S394.538 45.281 394.817 35.1C395.096 24.919 396.398 24.504 394.538 16.512Z" opacity="1" fill="#ff4057" data-fill-palette-color="tertiary"></path><g transform="matrix(1,0,0,1,55.76832,18.247992802666666)"><svg width="283.98335999999995" viewBox="4 -40.5 287.17999267578125 40.95000076293945" height="40.49136" data-palette-color="#282634"><path d="M24.75-8.4L24.75-14.75Q24.75-15.9 23.9-16.98 23.05-18.05 20.9-18.2L20.9-18.2Q19.5-16.5 17.5-16.5L17.5-16.5Q15.8-16.5 14.6-17.7 13.4-18.9 13.4-20.65L13.4-20.65Q13.4-22.4 14.6-23.6 15.8-24.8 17.5-24.8L17.5-24.8Q18.4-24.8 19.28-24.3 20.15-23.8 20.85-23.1L20.85-23.1Q21.95-23.15 22.55-23.45 23.15-23.75 23.43-24.18 23.7-24.6 23.75-25.15 23.8-25.7 23.8-26.25L23.8-26.25 23.8-31.3Q23.8-32.55 23.03-33.6 22.25-34.65 20.4-34.65L20.4-34.65 9.95-34.65 9.9-1.65Q9.9-0.65 8.97-0.13 8.05 0.4 6.95 0.4L6.95 0.4Q4 0.4 4-2L4-2 4-36.7Q4-38.5 4.93-39.1 5.85-39.7 7.15-39.7L7.15-39.7 21.65-39.7Q22.95-39.7 24.43-39.2 25.9-38.7 27.2-37.85L27.2-37.85 27.15-37.85Q28.45-36.9 29.08-35.35 29.7-33.8 29.7-31.75L29.7-31.75 29.7-26.1Q29.7-24.1 28.85-22.83 28-21.55 27.05-20.8L27.05-20.8Q27.7-20.4 28.3-19.98 28.9-19.55 29.3-19.05L29.3-19.05Q29.95-18.35 30.33-17.4 30.7-16.45 30.7-15.15L30.7-15.15 30.7-8Q30.7-3.9 27.5-1.95L27.5-1.95Q25.9-0.95 24.48-0.45 23.05 0.05 21.65 0.05L21.65 0.05 14.25 0.05Q13.4 0.05 12.93-0.65 12.45-1.35 12.45-2.5L12.45-2.5Q12.45-5 14.55-5L14.55-5 21.4-5Q23.25-5 24-6.05 24.75-7.1 24.75-8.4L24.75-8.4ZM60.8 0.05L41.35 0.05Q39.5 0.05 38.85-0.9 38.2-1.85 38.2-3L38.2-3 38.2-37.55Q38.2-39.95 41.1-39.95L41.1-39.95Q44.1-39.95 44.1-37.55L44.1-37.55 44.1-5 60.8-5Q62.6-5 62.6-2.55L62.6-2.55Q62.7 0.05 60.8 0.05L60.8 0.05ZM75.2-39.7L86.1-39.7Q87.4-39.7 88.8-39.15 90.2-38.6 91.5-37.75L91.5-37.75 91.45-37.75Q92.75-36.8 93.45-35.27 94.15-33.75 94.15-31.75L94.15-31.75 94.15-8Q94.15-3.95 91.45-1.95L91.45-1.95Q90.15-1 88.77-0.48 87.4 0.05 86.1 0.05L86.1 0.05 75.2 0.05Q73.9 0.05 72.52-0.48 71.15-1 69.85-1.95L69.85-1.95Q68.55-2.95 67.85-4.42 67.15-5.9 67.15-8L67.15-8 67.15-31.75Q67.15-33.75 67.85-35.27 68.55-36.8 69.85-37.75L69.85-37.75 69.8-37.75Q71.1-38.6 72.5-39.15 73.9-39.7 75.2-39.7L75.2-39.7ZM76.45-5L84.85-5Q86.7-5 87.45-6.05 88.2-7.1 88.2-8.4L88.2-8.4 88.2-31.3Q88.2-32.55 87.45-33.6 86.7-34.65 84.85-34.65L84.85-34.65 76.45-34.65Q74.6-34.65 73.85-33.6 73.1-32.55 73.1-31.3L73.1-31.3 73.1-8.4Q73.1-7.1 73.85-6.05 74.6-5 76.45-5L76.45-5ZM128.64-11.3L128.64-8Q128.64-3.95 125.94-1.95L125.94-1.95Q124.64-1 123.27-0.48 121.89 0.05 120.59 0.05L120.59 0.05 109.69 0.05Q108.39 0.05 107.02-0.48 105.64-1 104.34-1.95L104.34-1.95Q103.04-2.95 102.34-4.42 101.64-5.9 101.64-8L101.64-8 101.64-31.75Q101.64-33.75 102.34-35.27 103.04-36.8 104.34-37.75L104.34-37.75 104.29-37.75Q105.59-38.6 106.99-39.15 108.39-39.7 109.69-39.7L109.69-39.7 120.59-39.7Q121.89-39.7 123.29-39.15 124.69-38.6 125.99-37.75L125.99-37.75 125.94-37.75Q127.24-36.8 127.94-35.27 128.64-33.75 128.64-31.75L128.64-31.75 128.64-28.3Q128.64-25.9 125.64-25.9L125.64-25.9Q122.69-25.9 122.69-28.3L122.69-28.3 122.69-31.3Q122.69-32.55 121.94-33.6 121.19-34.65 119.34-34.65L119.34-34.65 110.94-34.65Q109.09-34.65 108.34-33.6 107.59-32.55 107.59-31.3L107.59-31.3 107.59-8.4Q107.59-7.1 108.34-6.05 109.09-5 110.94-5L110.94-5 119.34-5Q121.19-5 121.94-6.05 122.69-7.1 122.69-8.4L122.69-8.4 122.69-11.3Q122.69-13.65 125.64-13.65L125.64-13.65Q128.64-13.65 128.64-11.3L128.64-11.3ZM141.79-21.2L157.04-39.1Q157.79-40 158.74-40L158.74-40Q159.79-40 160.89-39.05L160.89-39.05Q161.44-38.5 161.82-37.95 162.19-37.4 162.19-36.85L162.19-36.85Q162.19-35.95 161.54-35.3L161.54-35.3 154.84-27.5 141.79-12.15 141.79-2.1Q141.79 0.3 138.79 0.3L138.79 0.3Q135.84 0.3 135.84-2.1L135.84-2.1 135.84-37.55Q135.84-39.95 138.79-39.95L138.79-39.95Q141.79-39.95 141.79-37.55L141.79-37.55 141.79-21.2ZM159.44-1.5L149.94-15.35Q149.44-16.05 149.44-17.05L149.44-17.05Q149.44-18.55 150.69-19.45L150.69-19.45 150.64-19.45Q151.64-20.15 152.64-20.15L152.64-20.15Q153.59-20.15 154.24-19.05L154.24-19.05 163.89-4.95 163.84-5Q164.29-4.3 164.29-3.5L164.29-3.5Q164.29-2.2 162.99-1.2L162.99-1.2 163.04-1.2Q162.49-0.85 161.99-0.65 161.49-0.45 161.09-0.45L161.09-0.45Q160.69-0.45 160.27-0.75 159.84-1.05 159.44-1.5L159.44-1.5ZM186.19-14.7L179.29-14.7Q178.44-14.7 177.96-15.38 177.49-16.05 177.49-17.2L177.49-17.2Q177.49-19.75 179.59-19.75L179.59-19.75 184.89-19.75Q186.74-19.75 187.51-20.8 188.29-21.85 188.29-23.1L188.29-23.1 188.29-31.3Q188.29-32.55 187.51-33.6 186.74-34.65 184.89-34.65L184.89-34.65 174.39-34.65 174.39-2Q174.39 0.4 171.39 0.4L171.39 0.4Q168.49 0.4 168.49-2L168.49-2 168.49-36.7Q168.49-38.5 169.39-39.1 170.29-39.7 171.59-39.7L171.59-39.7 186.19-39.7Q187.44-39.7 188.84-39.15 190.24-38.6 191.54-37.75L191.54-37.75 191.49-37.75Q192.79-36.8 193.49-35.27 194.19-33.75 194.19-31.75L194.19-31.75 194.19-22.7Q194.19-18.65 191.49-16.65L191.49-16.65Q190.19-15.7 188.84-15.2 187.49-14.7 186.19-14.7L186.19-14.7ZM224.39 0.05L204.94 0.05Q203.09 0.05 202.44-0.9 201.79-1.85 201.79-3L201.79-3 201.79-37.55Q201.79-39.95 204.69-39.95L204.69-39.95Q207.69-39.95 207.69-37.55L207.69-37.55 207.69-5 224.39-5Q226.19-5 226.19-2.55L226.19-2.55Q226.29 0.05 224.39 0.05L224.39 0.05ZM254.93-1.2L243.93-34.8 232.98-1.2 232.98-1.25Q232.68-0.5 232.16-0.03 231.63 0.45 230.88 0.45L230.88 0.45Q230.48 0.45 230.11 0.38 229.73 0.3 229.33 0.2L229.33 0.2 229.38 0.2Q226.53-0.7 227.28-3L227.28-3 238.68-37.65Q238.93-38.45 239.56-39 240.18-39.55 241.03-39.65L241.03-39.65Q241.88-39.8 242.68-39.88 243.48-39.95 243.93-39.95L243.93-39.95Q244.38-39.95 245.18-39.88 245.98-39.8 246.83-39.7L246.83-39.7Q247.53-39.6 248.21-38.95 248.88-38.3 249.23-37.65L249.23-37.65Q252.03-29.05 254.91-20.33 257.78-11.6 260.58-3L260.58-3Q261.28-0.7 258.48 0.2L258.48 0.2Q258.08 0.3 257.76 0.38 257.43 0.45 257.03 0.45L257.03 0.45Q256.33 0.45 255.76-0.03 255.18-0.5 254.93-1.25L254.93-1.25 254.93-1.2ZM247.68-12L247.68-12Q247.68-10.4 246.56-9.28 245.43-8.15 243.83-8.15L243.83-8.15Q242.23-8.15 241.13-9.28 240.03-10.4 240.03-12L240.03-12Q240.03-13.6 241.13-14.73 242.23-15.85 243.83-15.85L243.83-15.85Q245.43-15.85 246.56-14.73 247.68-13.6 247.68-12ZM279.68-15.15L279.68-2Q279.68 0.4 276.73 0.4L276.73 0.4Q273.78 0.4 273.78-2L273.78-2 273.78-15.3 262.58-36.6Q262.28-37.25 262.28-37.95L262.28-37.95Q262.28-39.4 263.98-40.1L263.98-40.1 263.93-40.1Q265.03-40.5 265.68-40.5L265.68-40.5Q266.98-40.5 267.68-39.2L267.68-39.2 276.78-22.1Q277.78-24 278.93-26.18 280.08-28.35 281.26-30.6 282.43-32.85 283.58-35.05 284.73-37.25 285.78-39.2L285.78-39.2Q286.18-39.8 286.66-40.15 287.13-40.5 287.83-40.5L287.83-40.5Q288.53-40.5 289.48-40.1L289.48-40.1 289.43-40.1Q291.18-39.35 291.18-37.9L291.18-37.9Q291.18-37.6 291.13-37.27 291.08-36.95 290.88-36.6L290.88-36.6Q290.43-35.7 289.76-34.4 289.08-33.1 287.86-30.78 286.63-28.45 284.68-24.73 282.73-21 279.68-15.15L279.68-15.15Z" opacity="1" transform="matrix(1,0,0,1,0,0)" fill="#282634" class="undefined-text-0" data-fill-palette-color="quaternary" id="text-0"></path></svg></g></svg></g><g transform="matrix(1,0,0,1,132.86056924240359,86.54638390869333)"><svg viewBox="0 0 129.79886151519284 20.018928384000002" height="20.018928384000002" width="129.79886151519284"><g transform="matrix(1,0,0,1,0,0)"><svg width="129.79886151519284" viewBox="3.5900001525878906 -37.54999923706055 317.6700134277344 49" height="20.018928384000002" data-palette-color="#dcdcdc"><path d="M38.57-23.24L38.57-20.36Q38.57-18.19 38.04-16.48 37.5-14.77 36.58-13.46 35.67-12.16 34.47-11.23 33.28-10.3 31.97-9.72 30.66-9.13 29.33-8.86 28-8.59 26.83-8.59L26.83-8.59 12.48-8.59 12.48-14.94 26.83-14.94Q28.05-15.04 29.04-15.44 30.03-15.84 30.74-16.53 31.45-17.21 31.84-18.18 32.23-19.14 32.23-20.36L32.23-20.36 32.23-23.24Q32.1-24.44 31.71-25.44 31.32-26.44 30.65-27.15 29.98-27.86 29.03-28.26 28.08-28.66 26.83-28.66L26.83-28.66 12.52-28.66Q11.25-28.66 10.6-28 9.94-27.34 9.94-26.1L9.94-26.1 9.94 0 3.59 0 3.59-26.1Q3.59-28.54 4.48-30.25 5.37-31.96 6.7-33.01 8.03-34.06 9.59-34.53 11.16-35.01 12.48-35.01L12.48-35.01 26.83-35.01Q28.98-35.01 30.69-34.46 32.4-33.91 33.7-33 35.01-32.08 35.93-30.88 36.84-29.69 37.44-28.38 38.04-27.08 38.31-25.74 38.57-24.41 38.57-23.24L38.57-23.24ZM54.88-6.35L54.88 0 52.05 0Q50.68 0 49.13-0.46 47.58-0.93 46.24-1.99 44.89-3.05 44.02-4.75 43.14-6.45 43.14-8.91L43.14-8.91 43.14-37.55 49.48-37.55 49.48-8.91Q49.48-7.74 50.22-7.04 50.95-6.35 52.05-6.35L52.05-6.35 54.88-6.35ZM86.2-17.65L86.2-8.74Q86.2-7.42 85.74-5.9 85.27-4.37 84.24-3.06 83.2-1.76 81.53-0.88 79.85 0 77.46 0L77.46 0 66.01 0Q64.69 0 63.17-0.46 61.64-0.93 60.33-1.97 59.03-3 58.15-4.68 57.27-6.35 57.27-8.74L57.27-8.74Q57.27-10.06 57.73-11.6 58.2-13.13 59.24-14.44 60.27-15.75 61.95-16.63 63.62-17.5 66.01-17.5L66.01-17.5 77.46-17.5 77.46-11.45 66.01-11.45Q64.72-11.45 64.01-10.66 63.3-9.86 63.3-8.69L63.3-8.69Q63.3-7.45 64.12-6.75 64.94-6.05 66.06-6.05L66.06-6.05 77.46-6.05Q78.75-6.05 79.46-6.84 80.17-7.62 80.17-8.79L80.17-8.79 80.17-17.65Q80.17-18.9 79.4-19.63 78.63-20.36 77.46-20.36L77.46-20.36 63.52-20.36 63.52-26.39 77.46-26.39Q78.78-26.39 80.31-25.93 81.83-25.46 83.14-24.43 84.44-23.39 85.32-21.72 86.2-20.04 86.2-17.65L86.2-17.65ZM120.72-26.39L120.72 2.54Q120.72 4.17 120.31 5.48 119.89 6.79 119.21 7.78 118.52 8.76 117.62 9.46 116.72 10.16 115.73 10.6 114.74 11.04 113.74 11.24 112.74 11.45 111.83 11.45L111.83 11.45 100.38 11.45 100.38 5.1 111.83 5.1Q113.1 5.1 113.74 4.44 114.37 3.78 114.37 2.54L114.37 2.54 114.37-26.39 120.72-26.39ZM111.83-6.35L111.83 0 100.38 0Q99.02 0 97.47-0.46 95.92-0.93 94.57-1.99 93.23-3.05 92.35-4.75 91.47-6.45 91.47-8.91L91.47-8.91 91.47-26.39 97.82-26.39 97.82-8.91Q97.82-7.67 98.48-7.01 99.14-6.35 100.43-6.35L100.43-6.35 111.83-6.35ZM166.64-26.39L166.64-20.04 155.55-20.04 155.55 0 149.13 0 149.13-20.04 140.88-20.04 140.88-26.39 149.13-26.39 149.13-35.01 155.55-35.01 155.55-26.39 166.64-26.39ZM199.42-17.5L199.42-8.91Q199.42-7.28 199.01-5.97 198.59-4.66 197.91-3.67 197.23-2.69 196.32-1.99 195.42-1.29 194.43-0.85 193.44-0.42 192.43-0.21 191.42 0 190.51 0L190.51 0 179.06 0Q177.74 0 176.18-0.46 174.62-0.93 173.29-1.99 171.96-3.05 171.07-4.75 170.18-6.45 170.18-8.91L170.18-8.91 170.18-17.5Q170.18-19.95 171.07-21.64 171.96-23.34 173.29-24.4 174.62-25.46 176.18-25.93 177.74-26.39 179.06-26.39L179.06-26.39 190.51-26.39Q192.95-26.39 194.66-25.51 196.37-24.63 197.42-23.3 198.47-21.97 198.95-20.41 199.42-18.85 199.42-17.5L199.42-17.5ZM193.08-8.91L193.08-17.46Q193.08-18.77 192.42-19.41 191.76-20.04 190.51-20.04L190.51-20.04 179.11-20.04Q177.84-20.04 177.18-19.4 176.52-18.75 176.52-17.5L176.52-17.5 176.52-8.91Q176.52-7.67 177.18-7.01 177.84-6.35 179.11-6.35L179.11-6.35 190.51-6.35Q191.81-6.35 192.44-7.01 193.08-7.67 193.08-8.91L193.08-8.91ZM257.43-26.39L264.53-26.39Q263.02-23 261.26-19.71 259.5-16.43 257.58-13.5 255.67-10.57 253.67-8.09 251.66-5.62 249.7-3.82 247.73-2.03 245.87-1.01 244 0 242.34 0L242.34 0Q241.65 0 241.07-0.24 240.48-0.49 240.04-0.92 239.6-1.34 239.36-1.93 239.12-2.51 239.12-3.2L239.12-3.2 239.12-15.04 226.52-0.95Q226.03-0.46 225.46-0.23 224.88 0 224.27 0L224.27 0Q223.61 0 223.04-0.24 222.47-0.49 222.03-0.92 221.59-1.34 221.33-1.93 221.07-2.51 221.07-3.2L221.07-3.2 221.07-26.39 227.42-26.39 227.42-11.35 240.07-25.49Q240.75-26.17 241.69-26.35 242.63-26.54 243.53-26.15L243.53-26.15Q244.44-25.78 244.96-24.99 245.49-24.19 245.49-23.24L245.49-23.24 245.49-8.15Q247.54-10.13 249.2-12.33 250.86-14.53 252.29-16.86 253.72-19.19 254.97-21.59 256.23-24 257.43-26.39L257.43-26.39ZM273.17-37.55L273.17-31.81 266.82-31.81 266.82-37.55 273.17-37.55ZM273.17-26.39L273.17 0 266.82 0 266.82-26.39 273.17-26.39ZM308.5-14.65L308.5 0 302.15 0 302.15-14.65Q302.15-15.89 301.72-16.88 301.29-17.87 300.56-18.58 299.83-19.29 298.84-19.67 297.85-20.04 296.7-20.04L296.7-20.04 285.6-20.04 285.6 0 279.25 0 279.25-23.24Q279.25-23.9 279.49-24.48 279.74-25.05 280.18-25.48 280.61-25.9 281.2-26.15 281.79-26.39 282.45-26.39L282.45-26.39 296.75-26.39Q297.95-26.39 299.28-26.12 300.61-25.85 301.92-25.26 303.22-24.66 304.41-23.74 305.59-22.83 306.51-21.52 307.42-20.21 307.96-18.51 308.5-16.8 308.5-14.65L308.5-14.65ZM321.26-35.01L319.77-8.59 315.4-8.59 313.91-35.01 321.26-35.01ZM320.77-3.2L320.77-3.2Q320.77-2.54 320.52-1.97 320.26-1.39 319.83-0.96 319.41-0.54 318.83-0.29 318.26-0.05 317.62-0.05L317.62-0.05Q316.96-0.05 316.39-0.29 315.82-0.54 315.39-0.96 314.96-1.39 314.72-1.97 314.47-2.54 314.47-3.2L314.47-3.2Q314.47-3.83 314.72-4.41 314.96-4.98 315.39-5.41 315.82-5.83 316.39-6.09 316.96-6.35 317.62-6.35L317.62-6.35Q318.26-6.35 318.83-6.09 319.41-5.83 319.83-5.41 320.26-4.98 320.52-4.41 320.77-3.83 320.77-3.2Z" opacity="1" transform="matrix(1,0,0,1,0,0)" fill="#dcdcdc" class="undefined-text-1" data-fill-palette-color="secondary" id="text-1"></path></svg></g></svg></g></svg></g></svg></g><g></g></svg></g></svg></g></svg></g><defs></defs></svg><rect width="395.52" height="247.2" fill="none" stroke="none" visibility="hidden"></rect></g></svg></g></svg>